<svg xmlns="http://www.w3.org/2000/svg" xmlns:xlink="http://www.w3.org/1999/xlink" width="500" zoomAndPan="magnify" viewBox="0 0 375 374.999991" height="500" preserveAspectRatio="xMidYMid meet" version="1.0"><defs><g/><clipPath id="1bf7c7db67"><path d="M 119.46875 84.605469 L 255.21875 84.605469 L 255.21875 220.355469 L 119.46875 220.355469 Z M 119.46875 84.605469 " clip-rule="nonzero"/></clipPath></defs><g clip-path="url(#1bf7c7db67)"><path fill="#ff6100" d="M 187.34375 96.9375 L 240.007812 96.9375 C 241.59375 96.9375 242.882812 98.230469 242.882812 99.816406 L 242.882812 131.058594 C 242.882812 132.644531 241.59375 133.9375 240.007812 133.9375 L 214.929688 133.9375 C 213.34375 133.9375 212.050781 132.644531 212.050781 131.058594 L 212.050781 130.648438 C 212.050781 129.0625 210.757812 127.769531 209.175781 127.769531 L 202.597656 127.769531 C 201.011719 127.769531 199.71875 129.0625 199.71875 130.648438 L 199.71875 143.476562 C 199.71875 145.0625 201.011719 146.355469 202.597656 146.355469 C 219.191406 146.347656 235.703125 146.277344 252.339844 146.269531 C 253.925781 146.269531 255.21875 144.976562 255.21875 143.390625 L 255.21875 87.480469 C 255.21875 85.898438 253.925781 84.605469 252.339844 84.605469 L 187.34375 84.605469 C 150.011719 84.605469 119.46875 115.148438 119.46875 152.480469 C 119.46875 189.808594 150.011719 220.355469 187.34375 220.355469 L 252.339844 220.355469 C 253.925781 220.355469 255.21875 219.0625 255.21875 217.476562 L 255.21875 161.566406 C 255.21875 159.980469 253.925781 158.6875 252.339844 158.6875 C 235.757812 158.6875 219.175781 158.6875 202.597656 158.6875 C 201.011719 158.6875 199.71875 159.980469 199.71875 161.566406 L 199.71875 174.308594 C 199.71875 175.894531 201.011719 177.1875 202.597656 177.1875 L 209.175781 177.1875 C 210.757812 177.1875 212.050781 175.894531 212.050781 174.308594 L 212.050781 173.898438 C 212.050781 172.316406 213.34375 171.019531 214.929688 171.019531 C 223.289062 171.019531 231.648438 171.019531 240.007812 171.019531 C 241.59375 171.019531 242.882812 172.316406 242.882812 173.898438 L 242.882812 205.144531 C 242.882812 206.726562 241.59375 208.019531 240.007812 208.019531 L 187.34375 208.019531 C 156.820312 208.019531 131.800781 183.003906 131.800781 152.480469 C 131.800781 121.957031 156.820312 96.9375 187.34375 96.9375 Z M 181.21875 135.957031 L 181.21875 143.476562 C 181.21875 145.0625 179.925781 146.355469 178.339844 146.355469 C 172.511719 146.355469 166.683594 146.355469 160.855469 146.355469 C 159.898438 146.355469 159.070312 145.929688 158.511719 145.148438 C 157.957031 144.363281 157.824219 143.445312 158.136719 142.539062 C 162.324219 130.425781 173.902344 121.601562 187.34375 121.601562 L 215.339844 121.601562 C 216.925781 121.601562 218.21875 122.894531 218.21875 124.480469 L 218.21875 124.890625 C 218.21875 126.476562 219.511719 127.769531 221.097656 127.769531 L 227.675781 127.769531 C 229.257812 127.769531 230.550781 126.476562 230.550781 124.890625 L 230.550781 112.148438 C 230.550781 110.5625 229.257812 109.269531 227.675781 109.269531 L 187.34375 109.269531 C 163.625 109.269531 144.132812 128.761719 144.132812 152.480469 C 144.132812 176.195312 163.625 195.6875 187.34375 195.6875 L 227.675781 195.6875 C 229.257812 195.6875 230.550781 194.394531 230.550781 192.808594 L 230.550781 180.066406 C 230.550781 178.480469 229.257812 177.1875 227.675781 177.1875 L 221.097656 177.1875 C 219.511719 177.1875 218.21875 178.480469 218.21875 180.066406 L 218.21875 180.476562 C 218.21875 182.0625 216.925781 183.355469 215.339844 183.355469 C 206.007812 183.355469 196.675781 183.355469 187.34375 183.355469 C 173.9375 183.355469 162.382812 174.578125 158.167969 162.515625 C 157.851562 161.605469 157.984375 160.683594 158.539062 159.898438 C 159.097656 159.117188 159.925781 158.6875 160.886719 158.6875 C 166.703125 158.6875 172.523438 158.6875 178.339844 158.6875 C 179.925781 158.6875 181.21875 159.980469 181.21875 161.566406 L 181.21875 169.085938 C 181.21875 170.671875 182.511719 171.964844 184.097656 171.964844 L 190.675781 171.964844 C 192.257812 171.964844 193.550781 170.671875 193.550781 169.085938 L 193.550781 135.957031 C 193.550781 134.375 192.257812 133.082031 190.675781 133.082031 L 184.097656 133.082031 C 182.511719 133.082031 181.21875 134.375 181.21875 135.957031 Z M 181.21875 135.957031 " fill-opacity="1" fill-rule="evenodd"/></g><g fill="#ffffff" fill-opacity="1"><g transform="translate(66.65491, 265.842155)"><g><path d="M 17.609375 -6 C 18.617188 -6 19.597656 -6.148438 20.546875 -6.453125 C 21.503906 -6.765625 22.207031 -7.0625 22.65625 -7.34375 L 23.328125 -7.796875 L 26.15625 -2.15625 C 26.0625 -2.082031 25.929688 -1.984375 25.765625 -1.859375 C 25.597656 -1.742188 25.210938 -1.523438 24.609375 -1.203125 C 24.015625 -0.890625 23.375 -0.613281 22.6875 -0.375 C 22.007812 -0.144531 21.117188 0.0625 20.015625 0.25 C 18.910156 0.4375 17.769531 0.53125 16.59375 0.53125 C 15.8125 0.53125 15.101562 0.484375 14.46875 0.390625 L 13.875 2.21875 C 14.976562 2.21875 16.007812 2.535156 16.96875 3.171875 C 17.9375 3.804688 18.421875 4.691406 18.421875 5.828125 C 18.421875 7.066406 17.976562 8.132812 17.09375 9.03125 C 16.21875 9.925781 14.875 10.375 13.0625 10.375 C 12.113281 10.375 11.1875 10.125 10.28125 9.625 C 9.382812 9.132812 8.710938 8.65625 8.265625 8.1875 L 7.625 7.453125 L 10.171875 5.546875 C 10.265625 5.660156 10.398438 5.8125 10.578125 6 C 10.753906 6.1875 11.09375 6.429688 11.59375 6.734375 C 12.101562 7.046875 12.59375 7.203125 13.0625 7.203125 C 13.675781 7.203125 14.125 7.066406 14.40625 6.796875 C 14.6875 6.523438 14.828125 6.203125 14.828125 5.828125 C 14.828125 5.304688 14.601562 4.910156 14.15625 4.640625 C 13.707031 4.367188 13.203125 4.234375 12.640625 4.234375 C 12.265625 4.234375 11.921875 4.253906 11.609375 4.296875 C 11.304688 4.347656 11.109375 4.398438 11.015625 4.453125 L 10.84375 4.546875 L 10.484375 4.265625 L 11.9375 -0.171875 C 8.726562 -1.160156 6.070312 -2.972656 3.96875 -5.609375 C 1.863281 -8.242188 0.8125 -11.207031 0.8125 -14.5 C 0.8125 -16.550781 1.242188 -18.515625 2.109375 -20.390625 C 2.984375 -22.273438 4.144531 -23.890625 5.59375 -25.234375 C 7.039062 -26.578125 8.726562 -27.648438 10.65625 -28.453125 C 12.582031 -29.253906 14.5625 -29.65625 16.59375 -29.65625 C 18.46875 -29.65625 20.195312 -29.429688 21.78125 -28.984375 C 23.375 -28.535156 24.503906 -28.085938 25.171875 -27.640625 L 26.15625 -26.96875 L 23.328125 -21.3125 C 23.160156 -21.457031 22.910156 -21.628906 22.578125 -21.828125 C 22.253906 -22.023438 21.597656 -22.289062 20.609375 -22.625 C 19.617188 -22.957031 18.617188 -23.125 17.609375 -23.125 C 16.015625 -23.125 14.582031 -22.863281 13.3125 -22.34375 C 12.039062 -21.820312 11.03125 -21.140625 10.28125 -20.296875 C 9.539062 -19.453125 8.976562 -18.539062 8.59375 -17.5625 C 8.207031 -16.582031 8.015625 -15.585938 8.015625 -14.578125 C 8.015625 -12.367188 8.84375 -10.382812 10.5 -8.625 C 12.15625 -6.875 14.523438 -6 17.609375 -6 Z M 17.609375 -6 "/></g></g></g><g fill="#ffffff" fill-opacity="1"><g transform="translate(96.551834, 265.842155)"><g><path d="M 24.5 -29.125 L 24.5 -10.34375 C 24.5 -6.769531 23.53125 -4.0625 21.59375 -2.21875 C 19.664062 -0.382812 16.84375 0.53125 13.125 0.53125 C 9.40625 0.53125 6.582031 -0.382812 4.65625 -2.21875 C 2.726562 -4.0625 1.765625 -6.769531 1.765625 -10.34375 L 1.765625 -29.125 L 8.40625 -29.125 L 8.40625 -12.28125 C 8.40625 -9.925781 8.773438 -8.289062 9.515625 -7.375 C 10.253906 -6.457031 11.457031 -6 13.125 -6 C 14.800781 -6 16.007812 -6.457031 16.75 -7.375 C 17.488281 -8.289062 17.859375 -9.925781 17.859375 -12.28125 L 17.859375 -29.125 Z M 24.5 -29.125 "/></g></g></g><g fill="#ffffff" fill-opacity="1"><g transform="translate(126.131081, 265.842155)"><g><path d="M 28.625 0 L 19.484375 0 L 8.75 -12.359375 L 8.75 0 L 2.125 0 L 2.125 -29.125 L 8.75 -29.125 L 8.75 -17.21875 L 18.75 -29.125 L 26.796875 -29.125 L 15.078125 -15.3125 Z M 28.625 0 "/></g></g></g><g fill="#ffffff" fill-opacity="1"><g transform="translate(157.228093, 265.842155)"><g><path d="M 24.5 -29.125 L 24.5 -10.34375 C 24.5 -6.769531 23.53125 -4.0625 21.59375 -2.21875 C 19.664062 -0.382812 16.84375 0.53125 13.125 0.53125 C 9.40625 0.53125 6.582031 -0.382812 4.65625 -2.21875 C 2.726562 -4.0625 1.765625 -6.769531 1.765625 -10.34375 L 1.765625 -29.125 L 8.40625 -29.125 L 8.40625 -12.28125 C 8.40625 -9.925781 8.773438 -8.289062 9.515625 -7.375 C 10.253906 -6.457031 11.457031 -6 13.125 -6 C 14.800781 -6 16.007812 -6.457031 16.75 -7.375 C 17.488281 -8.289062 17.859375 -9.925781 17.859375 -12.28125 L 17.859375 -29.125 Z M 24.5 -29.125 "/></g></g></g><g fill="#ffffff" fill-opacity="1"><g transform="translate(186.807337, 265.842155)"><g><path d="M 2.125 -29.125 L 12.53125 -29.125 C 15.332031 -29.125 17.613281 -28.375 19.375 -26.875 C 21.144531 -25.382812 22.03125 -23.25 22.03125 -20.46875 C 22.03125 -18.332031 21.492188 -16.539062 20.421875 -15.09375 C 19.347656 -13.644531 17.894531 -12.625 16.0625 -12.03125 L 26.078125 0 L 17.65625 0 L 8.75 -11.5 L 8.75 0 L 2.125 0 Z M 8.75 -16.203125 L 9.53125 -16.203125 C 10.144531 -16.203125 10.660156 -16.210938 11.078125 -16.234375 C 11.503906 -16.253906 11.988281 -16.335938 12.53125 -16.484375 C 13.070312 -16.628906 13.503906 -16.828125 13.828125 -17.078125 C 14.160156 -17.335938 14.441406 -17.710938 14.671875 -18.203125 C 14.910156 -18.703125 15.03125 -19.304688 15.03125 -20.015625 C 15.03125 -20.722656 14.910156 -21.320312 14.671875 -21.8125 C 14.441406 -22.3125 14.160156 -22.6875 13.828125 -22.9375 C 13.503906 -23.195312 13.070312 -23.394531 12.53125 -23.53125 C 11.988281 -23.675781 11.503906 -23.757812 11.078125 -23.78125 C 10.660156 -23.8125 10.144531 -23.828125 9.53125 -23.828125 L 8.75 -23.828125 Z M 8.75 -16.203125 "/></g></g></g><g fill="#ffffff" fill-opacity="1"><g transform="translate(215.39827, 265.842155)"><g><path d="M 0.8125 -14.578125 C 0.8125 -18.785156 2.242188 -22.347656 5.109375 -25.265625 C 7.984375 -28.191406 11.445312 -29.65625 15.5 -29.65625 C 19.570312 -29.65625 23.03125 -28.203125 25.875 -25.296875 C 28.71875 -22.390625 30.140625 -18.816406 30.140625 -14.578125 C 30.140625 -10.316406 28.738281 -6.734375 25.9375 -3.828125 C 23.144531 -0.921875 19.664062 0.53125 15.5 0.53125 C 11.238281 0.53125 7.722656 -0.910156 4.953125 -3.796875 C 2.191406 -6.679688 0.8125 -10.273438 0.8125 -14.578125 Z M 7.984375 -14.578125 C 7.984375 -13.046875 8.21875 -11.648438 8.6875 -10.390625 C 9.15625 -9.128906 9.976562 -8.0625 11.15625 -7.1875 C 12.332031 -6.320312 13.78125 -5.890625 15.5 -5.890625 C 17.96875 -5.890625 19.832031 -6.738281 21.09375 -8.4375 C 22.351562 -10.132812 22.984375 -12.179688 22.984375 -14.578125 C 22.984375 -16.953125 22.335938 -18.992188 21.046875 -20.703125 C 19.765625 -22.410156 17.914062 -23.265625 15.5 -23.265625 C 13.09375 -23.265625 11.238281 -22.410156 9.9375 -20.703125 C 8.632812 -18.992188 7.984375 -16.953125 7.984375 -14.578125 Z M 7.984375 -14.578125 "/></g></g></g><g fill="#ffffff" fill-opacity="1"><g transform="translate(249.671995, 265.842155)"><g><path d="M 11.21875 0 L -0.984375 -29.125 L 6.5 -29.125 L 13.84375 -9.984375 L 21.171875 -29.125 L 28.65625 -29.125 L 16.453125 0 Z M 11.21875 0 "/></g></g></g><g fill="#ffffff" fill-opacity="1"><g transform="translate(280.66312, 265.842155)"><g><path d="M 16.90625 -29.125 L 28.65625 0 L 21.53125 0 L 19.375 -5.828125 L 8.296875 -5.828125 L 6.140625 0 L -0.984375 0 L 10.765625 -29.125 Z M 17.125 -11.640625 L 13.875 -20.125 L 13.796875 -20.125 L 10.546875 -11.640625 Z M 17.125 -11.640625 "/></g></g></g><g fill="#ffffff" fill-opacity="1"><g transform="translate(92.361246, 283.824709)"><g><path d="M 6.78125 -10.5 L 6.78125 -8.40625 L 3.15625 -8.40625 L 3.15625 -6.3125 L 6.625 -6.3125 L 6.625 -4.21875 L 3.15625 -4.21875 L 3.15625 -2.09375 L 6.78125 -2.09375 L 6.78125 0 L 0.765625 0 L 0.765625 -10.5 Z M 6.78125 -10.5 "/></g></g></g><g fill="#ffffff" fill-opacity="1"><g transform="translate(106.247848, 283.824709)"><g><path d="M 3.15625 -10.5 L 3.15625 -2.09375 L 6.78125 -2.09375 L 6.78125 0 L 0.765625 0 L 0.765625 -10.5 Z M 3.15625 -10.5 "/></g></g></g><g fill="#ffffff" fill-opacity="1"><g transform="translate(119.943552, 283.824709)"><g><path d="M 6.78125 -10.5 L 6.78125 -8.40625 L 3.15625 -8.40625 L 3.15625 -6.3125 L 6.625 -6.3125 L 6.625 -4.21875 L 3.15625 -4.21875 L 3.15625 -2.09375 L 6.78125 -2.09375 L 6.78125 0 L 0.765625 0 L 0.765625 -10.5 Z M 6.78125 -10.5 "/></g></g></g><g fill="#ffffff" fill-opacity="1"><g transform="translate(133.830152, 283.824709)"><g><path d="M 10.328125 0 L 7.03125 0 L 3.15625 -4.453125 L 3.15625 0 L 0.765625 0 L 0.765625 -10.5 L 3.15625 -10.5 L 3.15625 -6.21875 L 6.765625 -10.5 L 9.671875 -10.5 L 5.4375 -5.53125 Z M 10.328125 0 "/></g></g></g><g fill="#ffffff" fill-opacity="1"><g transform="translate(150.351151, 283.824709)"><g><path d="M 0.109375 -8.40625 L 0.109375 -10.5 L 7.484375 -10.5 L 7.484375 -8.40625 L 4.984375 -8.40625 L 4.984375 0 L 2.59375 0 L 2.59375 -8.40625 Z M 0.109375 -8.40625 "/></g></g></g><g fill="#ffffff" fill-opacity="1"><g transform="translate(164.441379, 283.824709)"><g><path d="M 0.765625 -10.5 L 4.515625 -10.5 C 5.523438 -10.5 6.347656 -10.226562 6.984375 -9.6875 C 7.628906 -9.15625 7.953125 -8.390625 7.953125 -7.390625 C 7.953125 -6.617188 7.753906 -5.96875 7.359375 -5.4375 C 6.972656 -4.914062 6.453125 -4.550781 5.796875 -4.34375 L 9.40625 0 L 6.375 0 L 3.15625 -4.15625 L 3.15625 0 L 0.765625 0 Z M 3.15625 -5.84375 L 3.4375 -5.84375 C 3.65625 -5.84375 3.84375 -5.847656 4 -5.859375 C 4.15625 -5.867188 4.328125 -5.894531 4.515625 -5.9375 C 4.710938 -5.988281 4.867188 -6.0625 4.984375 -6.15625 C 5.109375 -6.25 5.210938 -6.382812 5.296875 -6.5625 C 5.378906 -6.75 5.421875 -6.96875 5.421875 -7.21875 C 5.421875 -7.476562 5.378906 -7.695312 5.296875 -7.875 C 5.210938 -8.050781 5.109375 -8.1875 4.984375 -8.28125 C 4.867188 -8.375 4.710938 -8.441406 4.515625 -8.484375 C 4.328125 -8.535156 4.15625 -8.566406 4 -8.578125 C 3.84375 -8.585938 3.65625 -8.59375 3.4375 -8.59375 L 3.15625 -8.59375 Z M 3.15625 -5.84375 "/></g></g></g><g fill="#ffffff" fill-opacity="1"><g transform="translate(180.058799, 283.824709)"><g><path d="M 0.296875 -5.265625 C 0.296875 -6.773438 0.8125 -8.054688 1.84375 -9.109375 C 2.882812 -10.171875 4.132812 -10.703125 5.59375 -10.703125 C 7.0625 -10.703125 8.304688 -10.175781 9.328125 -9.125 C 10.359375 -8.070312 10.875 -6.785156 10.875 -5.265625 C 10.875 -3.722656 10.367188 -2.425781 9.359375 -1.375 C 8.347656 -0.332031 7.09375 0.1875 5.59375 0.1875 C 4.050781 0.1875 2.78125 -0.328125 1.78125 -1.359375 C 0.789062 -2.398438 0.296875 -3.703125 0.296875 -5.265625 Z M 2.875 -5.265625 C 2.875 -4.710938 2.957031 -4.207031 3.125 -3.75 C 3.300781 -3.289062 3.597656 -2.90625 4.015625 -2.59375 C 4.441406 -2.28125 4.96875 -2.125 5.59375 -2.125 C 6.476562 -2.125 7.148438 -2.425781 7.609375 -3.03125 C 8.066406 -3.644531 8.296875 -4.390625 8.296875 -5.265625 C 8.296875 -6.117188 8.0625 -6.851562 7.59375 -7.46875 C 7.132812 -8.082031 6.46875 -8.390625 5.59375 -8.390625 C 4.726562 -8.390625 4.054688 -8.082031 3.578125 -7.46875 C 3.109375 -6.851562 2.875 -6.117188 2.875 -5.265625 Z M 2.875 -5.265625 "/></g></g></g><g fill="#ffffff" fill-opacity="1"><g transform="translate(197.725185, 283.824709)"><g><path d="M 9.453125 0 L 8.953125 -6.234375 L 8.890625 -6.234375 L 6.734375 -0.0625 L 5.3125 -0.0625 L 3.15625 -6.234375 L 3.09375 -6.234375 L 2.59375 0 L 0.203125 0 L 1.140625 -10.5 L 3.6875 -10.5 L 6.015625 -4.4375 L 8.359375 -10.5 L 10.90625 -10.5 L 11.84375 0 Z M 9.453125 0 "/></g></g></g><g fill="#ffffff" fill-opacity="1"><g transform="translate(216.269705, 283.824709)"><g><path d="M 6.09375 -10.5 L 10.34375 0 L 7.765625 0 L 6.984375 -2.09375 L 3 -2.09375 L 2.21875 0 L -0.359375 0 L 3.890625 -10.5 Z M 6.171875 -4.203125 L 5 -7.265625 L 4.984375 -7.265625 L 3.8125 -4.203125 Z M 6.171875 -4.203125 "/></g></g></g><g fill="#ffffff" fill-opacity="1"><g transform="translate(232.752526, 283.824709)"><g><path d="M 0.765625 -10.5 L 4.515625 -10.5 C 5.523438 -10.5 6.347656 -10.226562 6.984375 -9.6875 C 7.628906 -9.15625 7.953125 -8.390625 7.953125 -7.390625 C 7.953125 -6.617188 7.753906 -5.96875 7.359375 -5.4375 C 6.972656 -4.914062 6.453125 -4.550781 5.796875 -4.34375 L 9.40625 0 L 6.375 0 L 3.15625 -4.15625 L 3.15625 0 L 0.765625 0 Z M 3.15625 -5.84375 L 3.4375 -5.84375 C 3.65625 -5.84375 3.84375 -5.847656 4 -5.859375 C 4.15625 -5.867188 4.328125 -5.894531 4.515625 -5.9375 C 4.710938 -5.988281 4.867188 -6.0625 4.984375 -6.15625 C 5.109375 -6.25 5.210938 -6.382812 5.296875 -6.5625 C 5.378906 -6.75 5.421875 -6.96875 5.421875 -7.21875 C 5.421875 -7.476562 5.378906 -7.695312 5.296875 -7.875 C 5.210938 -8.050781 5.109375 -8.1875 4.984375 -8.28125 C 4.867188 -8.375 4.710938 -8.441406 4.515625 -8.484375 C 4.328125 -8.535156 4.15625 -8.566406 4 -8.578125 C 3.84375 -8.585938 3.65625 -8.59375 3.4375 -8.59375 L 3.15625 -8.59375 Z M 3.15625 -5.84375 "/></g></g></g><g fill="#ffffff" fill-opacity="1"><g transform="translate(248.369945, 283.824709)"><g><path d="M 10.328125 0 L 7.03125 0 L 3.15625 -4.453125 L 3.15625 0 L 0.765625 0 L 0.765625 -10.5 L 3.15625 -10.5 L 3.15625 -6.21875 L 6.765625 -10.5 L 9.671875 -10.5 L 5.4375 -5.53125 Z M 10.328125 0 "/></g></g></g><g fill="#ffffff" fill-opacity="1"><g transform="translate(264.890944, 283.824709)"><g><path d="M 6.78125 -10.5 L 6.78125 -8.40625 L 3.15625 -8.40625 L 3.15625 -6.3125 L 6.625 -6.3125 L 6.625 -4.21875 L 3.15625 -4.21875 L 3.15625 -2.09375 L 6.78125 -2.09375 L 6.78125 0 L 0.765625 0 L 0.765625 -10.5 Z M 6.78125 -10.5 "/></g></g></g><g fill="#ffffff" fill-opacity="1"><g transform="translate(278.777547, 283.824709)"><g><path d="M 0.109375 -8.40625 L 0.109375 -10.5 L 7.484375 -10.5 L 7.484375 -8.40625 L 4.984375 -8.40625 L 4.984375 0 L 2.59375 0 L 2.59375 -8.40625 Z M 0.109375 -8.40625 "/></g></g></g></svg>