<svg xmlns="http://www.w3.org/2000/svg" xmlns:xlink="http://www.w3.org/1999/xlink" width="500" zoomAndPan="magnify" viewBox="0 0 375 374.999991" height="500" preserveAspectRatio="xMidYMid meet" version="1.0"><defs><g/><clipPath id="ddacfc402d"><path d="M 119.46875 84.605469 L 255.21875 84.605469 L 255.21875 220.355469 L 119.46875 220.355469 Z M 119.46875 84.605469 " clip-rule="nonzero"/></clipPath></defs><g clip-path="url(#ddacfc402d)"><path fill="#ff6100" d="M 187.34375 96.9375 L 240.007812 96.9375 C 241.59375 96.9375 242.882812 98.230469 242.882812 99.816406 L 242.882812 131.058594 C 242.882812 132.644531 241.59375 133.9375 240.007812 133.9375 L 214.929688 133.9375 C 213.34375 133.9375 212.050781 132.644531 212.050781 131.058594 L 212.050781 130.648438 C 212.050781 129.0625 210.757812 127.769531 209.175781 127.769531 L 202.597656 127.769531 C 201.011719 127.769531 199.71875 129.0625 199.71875 130.648438 L 199.71875 143.476562 C 199.71875 145.0625 201.011719 146.355469 202.597656 146.355469 C 219.191406 146.347656 235.703125 146.277344 252.339844 146.269531 C 253.925781 146.269531 255.21875 144.976562 255.21875 143.390625 L 255.21875 87.480469 C 255.21875 85.898438 253.925781 84.605469 252.339844 84.605469 L 187.34375 84.605469 C 150.011719 84.605469 119.46875 115.148438 119.46875 152.480469 C 119.46875 189.808594 150.011719 220.355469 187.34375 220.355469 L 252.339844 220.355469 C 253.925781 220.355469 255.21875 219.0625 255.21875 217.476562 L 255.21875 161.566406 C 255.21875 159.980469 253.925781 158.6875 252.339844 158.6875 C 235.757812 158.6875 219.175781 158.6875 202.597656 158.6875 C 201.011719 158.6875 199.71875 159.980469 199.71875 161.566406 L 199.71875 174.308594 C 199.71875 175.894531 201.011719 177.1875 202.597656 177.1875 L 209.175781 177.1875 C 210.757812 177.1875 212.050781 175.894531 212.050781 174.308594 L 212.050781 173.898438 C 212.050781 172.316406 213.34375 171.019531 214.929688 171.019531 C 223.289062 171.019531 231.648438 171.019531 240.007812 171.019531 C 241.59375 171.019531 242.882812 172.316406 242.882812 173.898438 L 242.882812 205.144531 C 242.882812 206.726562 241.59375 208.019531 240.007812 208.019531 L 187.34375 208.019531 C 156.820312 208.019531 131.800781 183.003906 131.800781 152.480469 C 131.800781 121.957031 156.820312 96.9375 187.34375 96.9375 Z M 181.21875 135.957031 L 181.21875 143.476562 C 181.21875 145.0625 179.925781 146.355469 178.339844 146.355469 C 172.511719 146.355469 166.683594 146.355469 160.855469 146.355469 C 159.898438 146.355469 159.070312 145.929688 158.511719 145.148438 C 157.957031 144.363281 157.824219 143.445312 158.136719 142.539062 C 162.324219 130.425781 173.902344 121.601562 187.34375 121.601562 L 215.339844 121.601562 C 216.925781 121.601562 218.21875 122.894531 218.21875 124.480469 L 218.21875 124.890625 C 218.21875 126.476562 219.511719 127.769531 221.097656 127.769531 L 227.675781 127.769531 C 229.257812 127.769531 230.550781 126.476562 230.550781 124.890625 L 230.550781 112.148438 C 230.550781 110.5625 229.257812 109.269531 227.675781 109.269531 L 187.34375 109.269531 C 163.625 109.269531 144.132812 128.761719 144.132812 152.480469 C 144.132812 176.195312 163.625 195.6875 187.34375 195.6875 L 227.675781 195.6875 C 229.257812 195.6875 230.550781 194.394531 230.550781 192.808594 L 230.550781 180.066406 C 230.550781 178.480469 229.257812 177.1875 227.675781 177.1875 L 221.097656 177.1875 C 219.511719 177.1875 218.21875 178.480469 218.21875 180.066406 L 218.21875 180.476562 C 218.21875 182.0625 216.925781 183.355469 215.339844 183.355469 C 206.007812 183.355469 196.675781 183.355469 187.34375 183.355469 C 173.9375 183.355469 162.382812 174.578125 158.167969 162.515625 C 157.851562 161.605469 157.984375 160.683594 158.539062 159.898438 C 159.097656 159.117188 159.925781 158.6875 160.886719 158.6875 C 166.703125 158.6875 172.523438 158.6875 178.339844 158.6875 C 179.925781 158.6875 181.21875 159.980469 181.21875 161.566406 L 181.21875 169.085938 C 181.21875 170.671875 182.511719 171.964844 184.097656 171.964844 L 190.675781 171.964844 C 192.257812 171.964844 193.550781 170.671875 193.550781 169.085938 L 193.550781 135.957031 C 193.550781 134.375 192.257812 133.082031 190.675781 133.082031 L 184.097656 133.082031 C 182.511719 133.082031 181.21875 134.375 181.21875 135.957031 Z M 181.21875 135.957031 " fill-opacity="1" fill-rule="evenodd"/></g><g fill="#ffffff" fill-opacity="1"><g transform="translate(55.499484, 267.19973)"><g><path d="M 19.953125 -6.796875 C 21.109375 -6.796875 22.222656 -6.96875 23.296875 -7.3125 C 24.378906 -7.664062 25.175781 -8 25.6875 -8.3125 L 26.4375 -8.84375 L 29.640625 -2.4375 C 29.535156 -2.351562 29.390625 -2.242188 29.203125 -2.109375 C 29.015625 -1.984375 28.578125 -1.738281 27.890625 -1.375 C 27.210938 -1.019531 26.488281 -0.707031 25.71875 -0.4375 C 24.945312 -0.175781 23.929688 0.0546875 22.671875 0.265625 C 21.421875 0.484375 20.128906 0.59375 18.796875 0.59375 C 17.921875 0.59375 17.125 0.539062 16.40625 0.4375 L 15.71875 2.515625 C 16.96875 2.515625 18.140625 2.875 19.234375 3.59375 C 20.328125 4.320312 20.875 5.320312 20.875 6.59375 C 20.875 8.007812 20.375 9.222656 19.375 10.234375 C 18.375 11.253906 16.847656 11.765625 14.796875 11.765625 C 13.734375 11.765625 12.6875 11.484375 11.65625 10.921875 C 10.632812 10.359375 9.867188 9.8125 9.359375 9.28125 L 8.640625 8.4375 L 11.515625 6.28125 C 11.628906 6.414062 11.785156 6.585938 11.984375 6.796875 C 12.179688 7.015625 12.566406 7.296875 13.140625 7.640625 C 13.710938 7.984375 14.265625 8.15625 14.796875 8.15625 C 15.492188 8.15625 16 8 16.3125 7.6875 C 16.632812 7.382812 16.796875 7.019531 16.796875 6.59375 C 16.796875 6.007812 16.539062 5.5625 16.03125 5.25 C 15.53125 4.945312 14.957031 4.796875 14.3125 4.796875 C 13.894531 4.796875 13.507812 4.820312 13.15625 4.875 C 12.8125 4.925781 12.585938 4.984375 12.484375 5.046875 L 12.28125 5.15625 L 11.875 4.84375 L 13.515625 -0.203125 C 9.890625 -1.316406 6.882812 -3.367188 4.5 -6.359375 C 2.113281 -9.347656 0.921875 -12.707031 0.921875 -16.4375 C 0.921875 -18.757812 1.410156 -20.984375 2.390625 -23.109375 C 3.378906 -25.242188 4.691406 -27.070312 6.328125 -28.59375 C 7.972656 -30.113281 9.890625 -31.328125 12.078125 -32.234375 C 14.265625 -33.140625 16.503906 -33.59375 18.796875 -33.59375 C 20.929688 -33.59375 22.898438 -33.335938 24.703125 -32.828125 C 26.503906 -32.328125 27.773438 -31.820312 28.515625 -31.3125 L 29.640625 -30.5625 L 26.4375 -24.15625 C 26.25 -24.320312 25.96875 -24.515625 25.59375 -24.734375 C 25.226562 -24.960938 24.484375 -25.265625 23.359375 -25.640625 C 22.242188 -26.015625 21.109375 -26.203125 19.953125 -26.203125 C 18.140625 -26.203125 16.515625 -25.90625 15.078125 -25.3125 C 13.640625 -24.726562 12.5 -23.957031 11.65625 -23 C 10.820312 -22.039062 10.179688 -21.003906 9.734375 -19.890625 C 9.296875 -18.785156 9.078125 -17.660156 9.078125 -16.515625 C 9.078125 -14.015625 10.015625 -11.769531 11.890625 -9.78125 C 13.773438 -7.789062 16.460938 -6.796875 19.953125 -6.796875 Z M 19.953125 -6.796875 "/></g></g></g><g fill="#ffffff" fill-opacity="1"><g transform="translate(89.376482, 267.19973)"><g><path d="M 27.765625 -33 L 27.765625 -11.71875 C 27.765625 -7.664062 26.671875 -4.597656 24.484375 -2.515625 C 22.296875 -0.441406 19.09375 0.59375 14.875 0.59375 C 10.664062 0.59375 7.46875 -0.441406 5.28125 -2.515625 C 3.09375 -4.597656 2 -7.664062 2 -11.71875 L 2 -33 L 9.515625 -33 L 9.515625 -13.921875 C 9.515625 -11.253906 9.9375 -9.398438 10.78125 -8.359375 C 11.625 -7.316406 12.988281 -6.796875 14.875 -6.796875 C 16.769531 -6.796875 18.132812 -7.316406 18.96875 -8.359375 C 19.8125 -9.398438 20.234375 -11.253906 20.234375 -13.921875 L 20.234375 -33 Z M 27.765625 -33 "/></g></g></g><g fill="#ffffff" fill-opacity="1"><g transform="translate(122.893518, 267.19973)"><g><path d="M 32.4375 0 L 22.078125 0 L 9.921875 -14 L 9.921875 0 L 2.40625 0 L 2.40625 -33 L 9.921875 -33 L 9.921875 -19.515625 L 21.234375 -33 L 30.359375 -33 L 17.078125 -17.359375 Z M 32.4375 0 "/></g></g></g><g fill="#ffffff" fill-opacity="1"><g transform="translate(158.130389, 267.19973)"><g><path d="M 27.765625 -33 L 27.765625 -11.71875 C 27.765625 -7.664062 26.671875 -4.597656 24.484375 -2.515625 C 22.296875 -0.441406 19.09375 0.59375 14.875 0.59375 C 10.664062 0.59375 7.46875 -0.441406 5.28125 -2.515625 C 3.09375 -4.597656 2 -7.664062 2 -11.71875 L 2 -33 L 9.515625 -33 L 9.515625 -13.921875 C 9.515625 -11.253906 9.9375 -9.398438 10.78125 -8.359375 C 11.625 -7.316406 12.988281 -6.796875 14.875 -6.796875 C 16.769531 -6.796875 18.132812 -7.316406 18.96875 -8.359375 C 19.8125 -9.398438 20.234375 -11.253906 20.234375 -13.921875 L 20.234375 -33 Z M 27.765625 -33 "/></g></g></g><g fill="#ffffff" fill-opacity="1"><g transform="translate(191.647431, 267.19973)"><g><path d="M 2.40625 -33 L 14.203125 -33 C 17.367188 -33 19.953125 -32.148438 21.953125 -30.453125 C 23.953125 -28.765625 24.953125 -26.347656 24.953125 -23.203125 C 24.953125 -20.773438 24.34375 -18.738281 23.125 -17.09375 C 21.914062 -15.457031 20.273438 -14.304688 18.203125 -13.640625 L 29.5625 0 L 20 0 L 9.921875 -13.046875 L 9.921875 0 L 2.40625 0 Z M 9.921875 -18.359375 L 10.796875 -18.359375 C 11.492188 -18.359375 12.082031 -18.367188 12.5625 -18.390625 C 13.039062 -18.421875 13.585938 -18.515625 14.203125 -18.671875 C 14.816406 -18.835938 15.304688 -19.066406 15.671875 -19.359375 C 16.046875 -19.648438 16.367188 -20.078125 16.640625 -20.640625 C 16.910156 -21.203125 17.046875 -21.878906 17.046875 -22.671875 C 17.046875 -23.472656 16.910156 -24.15625 16.640625 -24.71875 C 16.367188 -25.28125 16.046875 -25.707031 15.671875 -26 C 15.304688 -26.289062 14.816406 -26.515625 14.203125 -26.671875 C 13.585938 -26.835938 13.039062 -26.929688 12.5625 -26.953125 C 12.082031 -26.984375 11.492188 -27 10.796875 -27 L 9.921875 -27 Z M 9.921875 -18.359375 "/></g></g></g><g fill="#ffffff" fill-opacity="1"><g transform="translate(224.044578, 267.19973)"><g><path d="M 0.921875 -16.515625 C 0.921875 -21.296875 2.546875 -25.335938 5.796875 -28.640625 C 9.054688 -31.941406 12.976562 -33.59375 17.5625 -33.59375 C 22.175781 -33.59375 26.09375 -31.945312 29.3125 -28.65625 C 32.539062 -25.363281 34.15625 -21.316406 34.15625 -16.515625 C 34.15625 -11.691406 32.566406 -7.632812 29.390625 -4.34375 C 26.222656 -1.050781 22.28125 0.59375 17.5625 0.59375 C 12.726562 0.59375 8.742188 -1.035156 5.609375 -4.296875 C 2.484375 -7.566406 0.921875 -11.640625 0.921875 -16.515625 Z M 9.046875 -16.515625 C 9.046875 -14.785156 9.3125 -13.207031 9.84375 -11.78125 C 10.375 -10.351562 11.304688 -9.144531 12.640625 -8.15625 C 13.972656 -7.175781 15.613281 -6.6875 17.5625 -6.6875 C 20.363281 -6.6875 22.476562 -7.644531 23.90625 -9.5625 C 25.332031 -11.476562 26.046875 -13.796875 26.046875 -16.515625 C 26.046875 -19.210938 25.316406 -21.523438 23.859375 -23.453125 C 22.410156 -25.390625 20.3125 -26.359375 17.5625 -26.359375 C 14.84375 -26.359375 12.742188 -25.390625 11.265625 -23.453125 C 9.785156 -21.523438 9.046875 -19.210938 9.046875 -16.515625 Z M 9.046875 -16.515625 "/></g></g></g><g fill="#ffffff" fill-opacity="1"><g transform="translate(262.881085, 267.19973)"><g><path d="M 12.71875 0 L -1.125 -33 L 7.359375 -33 L 15.6875 -11.3125 L 24 -33 L 32.484375 -33 L 18.640625 0 Z M 12.71875 0 "/></g></g></g><g fill="#ffffff" fill-opacity="1"><g transform="translate(297.997965, 267.19973)"><g><path d="M 19.15625 -33 L 32.484375 0 L 24.40625 0 L 21.953125 -6.59375 L 9.40625 -6.59375 L 6.953125 0 L -1.125 0 L 12.203125 -33 Z M 19.40625 -13.203125 L 15.71875 -22.796875 L 15.640625 -22.796875 L 11.953125 -13.203125 Z M 19.40625 -13.203125 "/></g></g></g><g fill="#ffffff" fill-opacity="1"><g transform="translate(72.554801, 293.126671)"><g><path d="M 8.375 -12.984375 L 8.375 -10.390625 L 3.90625 -10.390625 L 3.90625 -7.796875 L 8.1875 -7.796875 L 8.1875 -5.203125 L 3.90625 -5.203125 L 3.90625 -2.59375 L 8.375 -2.59375 L 8.375 0 L 0.9375 0 L 0.9375 -12.984375 Z M 8.375 -12.984375 "/></g></g></g><g fill="#ffffff" fill-opacity="1"><g transform="translate(89.714347, 293.126671)"><g><path d="M 3.90625 -12.984375 L 3.90625 -2.59375 L 8.375 -2.59375 L 8.375 0 L 0.9375 0 L 0.9375 -12.984375 Z M 3.90625 -12.984375 "/></g></g></g><g fill="#ffffff" fill-opacity="1"><g transform="translate(106.637994, 293.126671)"><g><path d="M 8.375 -12.984375 L 8.375 -10.390625 L 3.90625 -10.390625 L 3.90625 -7.796875 L 8.1875 -7.796875 L 8.1875 -5.203125 L 3.90625 -5.203125 L 3.90625 -2.59375 L 8.375 -2.59375 L 8.375 0 L 0.9375 0 L 0.9375 -12.984375 Z M 8.375 -12.984375 "/></g></g></g><g fill="#ffffff" fill-opacity="1"><g transform="translate(123.797539, 293.126671)"><g><path d="M 12.765625 0 L 8.6875 0 L 3.90625 -5.5 L 3.90625 0 L 0.9375 0 L 0.9375 -12.984375 L 3.90625 -12.984375 L 3.90625 -7.671875 L 8.359375 -12.984375 L 11.9375 -12.984375 L 6.71875 -6.828125 Z M 12.765625 0 "/></g></g></g><g fill="#ffffff" fill-opacity="1"><g transform="translate(144.21247, 293.126671)"><g><path d="M 0.125 -10.390625 L 0.125 -12.984375 L 9.25 -12.984375 L 9.25 -10.390625 L 6.171875 -10.390625 L 6.171875 0 L 3.203125 0 L 3.203125 -10.390625 Z M 0.125 -10.390625 "/></g></g></g><g fill="#ffffff" fill-opacity="1"><g transform="translate(161.623637, 293.126671)"><g><path d="M 0.9375 -12.984375 L 5.578125 -12.984375 C 6.828125 -12.984375 7.84375 -12.648438 8.625 -11.984375 C 9.414062 -11.316406 9.8125 -10.363281 9.8125 -9.125 C 9.8125 -8.164062 9.570312 -7.363281 9.09375 -6.71875 C 8.625 -6.082031 7.976562 -5.628906 7.15625 -5.359375 L 11.625 0 L 7.875 0 L 3.90625 -5.125 L 3.90625 0 L 0.9375 0 Z M 3.90625 -7.21875 L 4.25 -7.21875 C 4.519531 -7.21875 4.75 -7.222656 4.9375 -7.234375 C 5.125 -7.242188 5.335938 -7.28125 5.578125 -7.34375 C 5.828125 -7.40625 6.023438 -7.492188 6.171875 -7.609375 C 6.316406 -7.722656 6.441406 -7.890625 6.546875 -8.109375 C 6.648438 -8.335938 6.703125 -8.609375 6.703125 -8.921875 C 6.703125 -9.234375 6.648438 -9.5 6.546875 -9.71875 C 6.441406 -9.9375 6.316406 -10.101562 6.171875 -10.21875 C 6.023438 -10.34375 5.828125 -10.4375 5.578125 -10.5 C 5.335938 -10.5625 5.125 -10.597656 4.9375 -10.609375 C 4.75 -10.617188 4.519531 -10.625 4.25 -10.625 L 3.90625 -10.625 Z M 3.90625 -7.21875 "/></g></g></g><g fill="#ffffff" fill-opacity="1"><g transform="translate(180.921979, 293.126671)"><g><path d="M 0.359375 -6.5 C 0.359375 -8.375 1 -9.960938 2.28125 -11.265625 C 3.5625 -12.566406 5.101562 -13.21875 6.90625 -13.21875 C 8.71875 -13.21875 10.257812 -12.566406 11.53125 -11.265625 C 12.800781 -9.972656 13.4375 -8.382812 13.4375 -6.5 C 13.4375 -4.601562 12.8125 -3.003906 11.5625 -1.703125 C 10.3125 -0.410156 8.757812 0.234375 6.90625 0.234375 C 5.007812 0.234375 3.441406 -0.40625 2.203125 -1.6875 C 0.972656 -2.976562 0.359375 -4.582031 0.359375 -6.5 Z M 3.5625 -6.5 C 3.5625 -5.8125 3.664062 -5.1875 3.875 -4.625 C 4.082031 -4.070312 4.445312 -3.597656 4.96875 -3.203125 C 5.5 -2.816406 6.144531 -2.625 6.90625 -2.625 C 8.007812 -2.625 8.84375 -3 9.40625 -3.75 C 9.96875 -4.507812 10.25 -5.425781 10.25 -6.5 C 10.25 -7.5625 9.960938 -8.472656 9.390625 -9.234375 C 8.816406 -9.992188 7.988281 -10.375 6.90625 -10.375 C 5.832031 -10.375 5.003906 -9.992188 4.421875 -9.234375 C 3.847656 -8.472656 3.5625 -7.5625 3.5625 -6.5 Z M 3.5625 -6.5 "/></g></g></g><g fill="#ffffff" fill-opacity="1"><g transform="translate(202.752292, 293.126671)"><g><path d="M 11.671875 0 L 11.0625 -7.6875 L 10.984375 -7.6875 L 8.328125 -0.078125 L 6.5625 -0.078125 L 3.90625 -7.6875 L 3.828125 -7.6875 L 3.203125 0 L 0.25 0 L 1.421875 -12.984375 L 4.5625 -12.984375 L 7.4375 -5.484375 L 10.328125 -12.984375 L 13.46875 -12.984375 L 14.640625 0 Z M 11.671875 0 "/></g></g></g><g fill="#ffffff" fill-opacity="1"><g transform="translate(225.667735, 293.126671)"><g><path d="M 7.53125 -12.984375 L 12.78125 0 L 9.59375 0 L 8.640625 -2.59375 L 3.703125 -2.59375 L 2.734375 0 L -0.4375 0 L 4.796875 -12.984375 Z M 7.625 -5.1875 L 6.1875 -8.96875 L 6.15625 -8.96875 L 4.703125 -5.1875 Z M 7.625 -5.1875 "/></g></g></g><g fill="#ffffff" fill-opacity="1"><g transform="translate(246.035482, 293.126671)"><g><path d="M 0.9375 -12.984375 L 5.578125 -12.984375 C 6.828125 -12.984375 7.84375 -12.648438 8.625 -11.984375 C 9.414062 -11.316406 9.8125 -10.363281 9.8125 -9.125 C 9.8125 -8.164062 9.570312 -7.363281 9.09375 -6.71875 C 8.625 -6.082031 7.976562 -5.628906 7.15625 -5.359375 L 11.625 0 L 7.875 0 L 3.90625 -5.125 L 3.90625 0 L 0.9375 0 Z M 3.90625 -7.21875 L 4.25 -7.21875 C 4.519531 -7.21875 4.75 -7.222656 4.9375 -7.234375 C 5.125 -7.242188 5.335938 -7.28125 5.578125 -7.34375 C 5.828125 -7.40625 6.023438 -7.492188 6.171875 -7.609375 C 6.316406 -7.722656 6.441406 -7.890625 6.546875 -8.109375 C 6.648438 -8.335938 6.703125 -8.609375 6.703125 -8.921875 C 6.703125 -9.234375 6.648438 -9.5 6.546875 -9.71875 C 6.441406 -9.9375 6.316406 -10.101562 6.171875 -10.21875 C 6.023438 -10.34375 5.828125 -10.4375 5.578125 -10.5 C 5.335938 -10.5625 5.125 -10.597656 4.9375 -10.609375 C 4.75 -10.617188 4.519531 -10.625 4.25 -10.625 L 3.90625 -10.625 Z M 3.90625 -7.21875 "/></g></g></g><g fill="#ffffff" fill-opacity="1"><g transform="translate(265.333813, 293.126671)"><g><path d="M 12.765625 0 L 8.6875 0 L 3.90625 -5.5 L 3.90625 0 L 0.9375 0 L 0.9375 -12.984375 L 3.90625 -12.984375 L 3.90625 -7.671875 L 8.359375 -12.984375 L 11.9375 -12.984375 L 6.71875 -6.828125 Z M 12.765625 0 "/></g></g></g><g fill="#ffffff" fill-opacity="1"><g transform="translate(285.748744, 293.126671)"><g><path d="M 8.375 -12.984375 L 8.375 -10.390625 L 3.90625 -10.390625 L 3.90625 -7.796875 L 8.1875 -7.796875 L 8.1875 -5.203125 L 3.90625 -5.203125 L 3.90625 -2.59375 L 8.375 -2.59375 L 8.375 0 L 0.9375 0 L 0.9375 -12.984375 Z M 8.375 -12.984375 "/></g></g></g><g fill="#ffffff" fill-opacity="1"><g transform="translate(302.908289, 293.126671)"><g><path d="M 0.125 -10.390625 L 0.125 -12.984375 L 9.25 -12.984375 L 9.25 -10.390625 L 6.171875 -10.390625 L 6.171875 0 L 3.203125 0 L 3.203125 -10.390625 Z M 0.125 -10.390625 "/></g></g></g></svg>