<svg xmlns="http://www.w3.org/2000/svg" xmlns:xlink="http://www.w3.org/1999/xlink" width="500" zoomAndPan="magnify" viewBox="0 0 375 374.999991" height="500" preserveAspectRatio="xMidYMid meet" version="1.0"><defs><g/><clipPath id="469163f2f8"><path d="M 119.46875 84.605469 L 255.21875 84.605469 L 255.21875 220.355469 L 119.46875 220.355469 Z M 119.46875 84.605469 " clip-rule="nonzero"/></clipPath></defs><g clip-path="url(#469163f2f8)"><path fill="#ff6100" d="M 187.34375 96.9375 L 240.007812 96.9375 C 241.59375 96.9375 242.882812 98.230469 242.882812 99.816406 L 242.882812 131.058594 C 242.882812 132.644531 241.59375 133.9375 240.007812 133.9375 L 214.929688 133.9375 C 213.34375 133.9375 212.050781 132.644531 212.050781 131.058594 L 212.050781 130.648438 C 212.050781 129.0625 210.757812 127.769531 209.175781 127.769531 L 202.597656 127.769531 C 201.011719 127.769531 199.71875 129.0625 199.71875 130.648438 L 199.71875 143.476562 C 199.71875 145.0625 201.011719 146.355469 202.597656 146.355469 C 219.191406 146.347656 235.703125 146.277344 252.339844 146.269531 C 253.925781 146.269531 255.21875 144.976562 255.21875 143.390625 L 255.21875 87.480469 C 255.21875 85.898438 253.925781 84.605469 252.339844 84.605469 L 187.34375 84.605469 C 150.011719 84.605469 119.46875 115.148438 119.46875 152.480469 C 119.46875 189.808594 150.011719 220.355469 187.34375 220.355469 L 252.339844 220.355469 C 253.925781 220.355469 255.21875 219.0625 255.21875 217.476562 L 255.21875 161.566406 C 255.21875 159.980469 253.925781 158.6875 252.339844 158.6875 C 235.757812 158.6875 219.175781 158.6875 202.597656 158.6875 C 201.011719 158.6875 199.71875 159.980469 199.71875 161.566406 L 199.71875 174.308594 C 199.71875 175.894531 201.011719 177.1875 202.597656 177.1875 L 209.175781 177.1875 C 210.757812 177.1875 212.050781 175.894531 212.050781 174.308594 L 212.050781 173.898438 C 212.050781 172.316406 213.34375 171.019531 214.929688 171.019531 C 223.289062 171.019531 231.648438 171.019531 240.007812 171.019531 C 241.59375 171.019531 242.882812 172.316406 242.882812 173.898438 L 242.882812 205.144531 C 242.882812 206.726562 241.59375 208.019531 240.007812 208.019531 L 187.34375 208.019531 C 156.820312 208.019531 131.800781 183.003906 131.800781 152.480469 C 131.800781 121.957031 156.820312 96.9375 187.34375 96.9375 Z M 181.21875 135.957031 L 181.21875 143.476562 C 181.21875 145.0625 179.925781 146.355469 178.339844 146.355469 C 172.511719 146.355469 166.683594 146.355469 160.855469 146.355469 C 159.898438 146.355469 159.070312 145.929688 158.511719 145.148438 C 157.957031 144.363281 157.824219 143.445312 158.136719 142.539062 C 162.324219 130.425781 173.902344 121.601562 187.34375 121.601562 L 215.339844 121.601562 C 216.925781 121.601562 218.21875 122.894531 218.21875 124.480469 L 218.21875 124.890625 C 218.21875 126.476562 219.511719 127.769531 221.097656 127.769531 L 227.675781 127.769531 C 229.257812 127.769531 230.550781 126.476562 230.550781 124.890625 L 230.550781 112.148438 C 230.550781 110.5625 229.257812 109.269531 227.675781 109.269531 L 187.34375 109.269531 C 163.625 109.269531 144.132812 128.761719 144.132812 152.480469 C 144.132812 176.195312 163.625 195.6875 187.34375 195.6875 L 227.675781 195.6875 C 229.257812 195.6875 230.550781 194.394531 230.550781 192.808594 L 230.550781 180.066406 C 230.550781 178.480469 229.257812 177.1875 227.675781 177.1875 L 221.097656 177.1875 C 219.511719 177.1875 218.21875 178.480469 218.21875 180.066406 L 218.21875 180.476562 C 218.21875 182.0625 216.925781 183.355469 215.339844 183.355469 C 206.007812 183.355469 196.675781 183.355469 187.34375 183.355469 C 173.9375 183.355469 162.382812 174.578125 158.167969 162.515625 C 157.851562 161.605469 157.984375 160.683594 158.539062 159.898438 C 159.097656 159.117188 159.925781 158.6875 160.886719 158.6875 C 166.703125 158.6875 172.523438 158.6875 178.339844 158.6875 C 179.925781 158.6875 181.21875 159.980469 181.21875 161.566406 L 181.21875 169.085938 C 181.21875 170.671875 182.511719 171.964844 184.097656 171.964844 L 190.675781 171.964844 C 192.257812 171.964844 193.550781 170.671875 193.550781 169.085938 L 193.550781 135.957031 C 193.550781 134.375 192.257812 133.082031 190.675781 133.082031 L 184.097656 133.082031 C 182.511719 133.082031 181.21875 134.375 181.21875 135.957031 Z M 181.21875 135.957031 " fill-opacity="1" fill-rule="evenodd"/></g><g fill="#ffffff" fill-opacity="1"><g transform="translate(38.404433, 266.199724)"><g><path d="M 22.453125 -7.65625 C 23.742188 -7.65625 24.992188 -7.847656 26.203125 -8.234375 C 27.421875 -8.617188 28.316406 -8.992188 28.890625 -9.359375 L 29.75 -9.9375 L 33.34375 -2.75 C 33.226562 -2.65625 33.0625 -2.53125 32.84375 -2.375 C 32.632812 -2.226562 32.144531 -1.953125 31.375 -1.546875 C 30.613281 -1.140625 29.796875 -0.785156 28.921875 -0.484375 C 28.054688 -0.191406 26.921875 0.0703125 25.515625 0.3125 C 24.109375 0.550781 22.65625 0.671875 21.15625 0.671875 C 20.164062 0.671875 19.265625 0.613281 18.453125 0.5 L 17.6875 2.828125 C 19.09375 2.828125 20.410156 3.234375 21.640625 4.046875 C 22.867188 4.859375 23.484375 5.984375 23.484375 7.421875 C 23.484375 9.015625 22.921875 10.378906 21.796875 11.515625 C 20.671875 12.660156 18.957031 13.234375 16.65625 13.234375 C 15.445312 13.234375 14.265625 12.914062 13.109375 12.28125 C 11.960938 11.65625 11.101562 11.039062 10.53125 10.4375 L 9.71875 9.5 L 12.953125 7.0625 C 13.078125 7.21875 13.25 7.414062 13.46875 7.65625 C 13.695312 7.894531 14.132812 8.207031 14.78125 8.59375 C 15.425781 8.988281 16.050781 9.1875 16.65625 9.1875 C 17.425781 9.1875 17.992188 9.007812 18.359375 8.65625 C 18.722656 8.3125 18.90625 7.898438 18.90625 7.421875 C 18.90625 6.765625 18.617188 6.265625 18.046875 5.921875 C 17.472656 5.578125 16.828125 5.40625 16.109375 5.40625 C 15.628906 5.40625 15.191406 5.429688 14.796875 5.484375 C 14.410156 5.546875 14.160156 5.609375 14.046875 5.671875 L 13.8125 5.8125 L 13.359375 5.4375 L 15.203125 -0.21875 C 11.128906 -1.476562 7.75 -3.785156 5.0625 -7.140625 C 2.375 -10.503906 1.03125 -14.289062 1.03125 -18.5 C 1.03125 -21.101562 1.582031 -23.601562 2.6875 -26 C 3.800781 -28.40625 5.28125 -30.460938 7.125 -32.171875 C 8.976562 -33.878906 11.132812 -35.242188 13.59375 -36.265625 C 16.050781 -37.285156 18.570312 -37.796875 21.15625 -37.796875 C 23.550781 -37.796875 25.757812 -37.507812 27.78125 -36.9375 C 29.8125 -36.375 31.242188 -35.804688 32.078125 -35.234375 L 33.34375 -34.375 L 29.75 -27.1875 C 29.539062 -27.363281 29.222656 -27.578125 28.796875 -27.828125 C 28.378906 -28.085938 27.539062 -28.425781 26.28125 -28.84375 C 25.019531 -29.257812 23.742188 -29.46875 22.453125 -29.46875 C 20.410156 -29.46875 18.578125 -29.140625 16.953125 -28.484375 C 15.335938 -27.828125 14.054688 -26.957031 13.109375 -25.875 C 12.171875 -24.789062 11.453125 -23.625 10.953125 -22.375 C 10.460938 -21.132812 10.21875 -19.867188 10.21875 -18.578125 C 10.21875 -15.765625 11.273438 -13.238281 13.390625 -11 C 15.503906 -8.769531 18.523438 -7.65625 22.453125 -7.65625 Z M 22.453125 -7.65625 "/></g></g></g><g fill="#ffffff" fill-opacity="1"><g transform="translate(76.510633, 266.199724)"><g><path d="M 31.234375 -37.125 L 31.234375 -13.1875 C 31.234375 -8.625 30 -5.171875 27.53125 -2.828125 C 25.070312 -0.492188 21.472656 0.671875 16.734375 0.671875 C 11.992188 0.671875 8.394531 -0.492188 5.9375 -2.828125 C 3.476562 -5.171875 2.25 -8.625 2.25 -13.1875 L 2.25 -37.125 L 10.703125 -37.125 L 10.703125 -15.65625 C 10.703125 -12.65625 11.175781 -10.570312 12.125 -9.40625 C 13.070312 -8.238281 14.609375 -7.65625 16.734375 -7.65625 C 18.867188 -7.65625 20.40625 -8.238281 21.34375 -9.40625 C 22.289062 -10.570312 22.765625 -12.65625 22.765625 -15.65625 L 22.765625 -37.125 Z M 31.234375 -37.125 "/></g></g></g><g fill="#ffffff" fill-opacity="1"><g transform="translate(114.211941, 266.199724)"><g><path d="M 36.5 0 L 24.84375 0 L 11.15625 -15.75 L 11.15625 0 L 2.703125 0 L 2.703125 -37.125 L 11.15625 -37.125 L 11.15625 -21.953125 L 23.890625 -37.125 L 34.15625 -37.125 L 19.21875 -19.53125 Z M 36.5 0 "/></g></g></g><g fill="#ffffff" fill-opacity="1"><g transform="translate(153.847744, 266.199724)"><g><path d="M 31.234375 -37.125 L 31.234375 -13.1875 C 31.234375 -8.625 30 -5.171875 27.53125 -2.828125 C 25.070312 -0.492188 21.472656 0.671875 16.734375 0.671875 C 11.992188 0.671875 8.394531 -0.492188 5.9375 -2.828125 C 3.476562 -5.171875 2.25 -8.625 2.25 -13.1875 L 2.25 -37.125 L 10.703125 -37.125 L 10.703125 -15.65625 C 10.703125 -12.65625 11.175781 -10.570312 12.125 -9.40625 C 13.070312 -8.238281 14.609375 -7.65625 16.734375 -7.65625 C 18.867188 -7.65625 20.40625 -8.238281 21.34375 -9.40625 C 22.289062 -10.570312 22.765625 -12.65625 22.765625 -15.65625 L 22.765625 -37.125 Z M 31.234375 -37.125 "/></g></g></g><g fill="#ffffff" fill-opacity="1"><g transform="translate(191.549054, 266.199724)"><g><path d="M 2.703125 -37.125 L 15.96875 -37.125 C 19.539062 -37.125 22.453125 -36.171875 24.703125 -34.265625 C 26.953125 -32.359375 28.078125 -29.632812 28.078125 -26.09375 C 28.078125 -23.363281 27.394531 -21.078125 26.03125 -19.234375 C 24.664062 -17.390625 22.8125 -16.09375 20.46875 -15.34375 L 33.25 0 L 22.5 0 L 11.15625 -14.671875 L 11.15625 0 L 2.703125 0 Z M 11.15625 -20.65625 L 12.15625 -20.65625 C 12.925781 -20.65625 13.582031 -20.671875 14.125 -20.703125 C 14.664062 -20.734375 15.28125 -20.835938 15.96875 -21.015625 C 16.664062 -21.191406 17.222656 -21.445312 17.640625 -21.78125 C 18.054688 -22.113281 18.414062 -22.59375 18.71875 -23.21875 C 19.019531 -23.851562 19.171875 -24.617188 19.171875 -25.515625 C 19.171875 -26.410156 19.019531 -27.171875 18.71875 -27.796875 C 18.414062 -28.429688 18.054688 -28.914062 17.640625 -29.25 C 17.222656 -29.582031 16.664062 -29.835938 15.96875 -30.015625 C 15.28125 -30.191406 14.664062 -30.296875 14.125 -30.328125 C 13.582031 -30.359375 12.925781 -30.375 12.15625 -30.375 L 11.15625 -30.375 Z M 11.15625 -20.65625 "/></g></g></g><g fill="#ffffff" fill-opacity="1"><g transform="translate(227.99069, 266.199724)"><g><path d="M 1.03125 -18.578125 C 1.03125 -23.953125 2.859375 -28.5 6.515625 -32.21875 C 10.179688 -35.9375 14.59375 -37.796875 19.75 -37.796875 C 24.945312 -37.796875 29.359375 -35.941406 32.984375 -32.234375 C 36.617188 -28.535156 38.4375 -23.984375 38.4375 -18.578125 C 38.4375 -13.148438 36.648438 -8.582031 33.078125 -4.875 C 29.503906 -1.175781 25.0625 0.671875 19.75 0.671875 C 14.320312 0.671875 9.84375 -1.160156 6.3125 -4.828125 C 2.789062 -8.503906 1.03125 -13.085938 1.03125 -18.578125 Z M 10.171875 -18.578125 C 10.171875 -16.628906 10.46875 -14.851562 11.0625 -13.25 C 11.664062 -11.644531 12.71875 -10.285156 14.21875 -9.171875 C 15.71875 -8.066406 17.5625 -7.515625 19.75 -7.515625 C 22.90625 -7.515625 25.285156 -8.59375 26.890625 -10.75 C 28.492188 -12.914062 29.296875 -15.523438 29.296875 -18.578125 C 29.296875 -21.609375 28.476562 -24.210938 26.84375 -26.390625 C 25.207031 -28.566406 22.84375 -29.65625 19.75 -29.65625 C 16.695312 -29.65625 14.335938 -28.566406 12.671875 -26.390625 C 11.003906 -24.210938 10.171875 -21.609375 10.171875 -18.578125 Z M 10.171875 -18.578125 "/></g></g></g><g fill="#ffffff" fill-opacity="1"><g transform="translate(271.67543, 266.199724)"><g><path d="M 14.3125 0 L -1.265625 -37.125 L 8.28125 -37.125 L 17.640625 -12.734375 L 27 -37.125 L 36.546875 -37.125 L 20.96875 0 Z M 14.3125 0 "/></g></g></g><g fill="#ffffff" fill-opacity="1"><g transform="translate(311.176267, 266.199724)"><g><path d="M 21.5625 -37.125 L 36.546875 0 L 27.453125 0 L 24.703125 -7.421875 L 10.578125 -7.421875 L 7.828125 0 L -1.265625 0 L 13.71875 -37.125 Z M 21.828125 -14.84375 L 17.6875 -25.65625 L 17.59375 -25.65625 L 13.453125 -14.84375 Z M 21.828125 -14.84375 "/></g></g></g><g fill="#ffffff" fill-opacity="1"><g transform="translate(34.493648, 297.87672)"><g><path d="M 11.03125 -17.109375 L 11.03125 -13.6875 L 5.140625 -13.6875 L 5.140625 -10.28125 L 10.78125 -10.28125 L 10.78125 -6.859375 L 5.140625 -6.859375 L 5.140625 -3.421875 L 11.03125 -3.421875 L 11.03125 0 L 1.25 0 L 1.25 -17.109375 Z M 11.03125 -17.109375 "/></g></g></g><g fill="#ffffff" fill-opacity="1"><g transform="translate(57.103667, 297.87672)"><g><path d="M 5.140625 -17.109375 L 5.140625 -3.421875 L 11.03125 -3.421875 L 11.03125 0 L 1.25 0 L 1.25 -17.109375 Z M 5.140625 -17.109375 "/></g></g></g><g fill="#ffffff" fill-opacity="1"><g transform="translate(79.402899, 297.87672)"><g><path d="M 11.03125 -17.109375 L 11.03125 -13.6875 L 5.140625 -13.6875 L 5.140625 -10.28125 L 10.78125 -10.28125 L 10.78125 -6.859375 L 5.140625 -6.859375 L 5.140625 -3.421875 L 11.03125 -3.421875 L 11.03125 0 L 1.25 0 L 1.25 -17.109375 Z M 11.03125 -17.109375 "/></g></g></g><g fill="#ffffff" fill-opacity="1"><g transform="translate(102.012915, 297.87672)"><g><path d="M 16.8125 0 L 11.453125 0 L 5.140625 -7.25 L 5.140625 0 L 1.25 0 L 1.25 -17.109375 L 5.140625 -17.109375 L 5.140625 -10.125 L 11.015625 -17.109375 L 15.734375 -17.109375 L 8.859375 -9 Z M 16.8125 0 "/></g></g></g><g fill="#ffffff" fill-opacity="1"><g transform="translate(128.911725, 297.87672)"><g><path d="M 0.171875 -13.6875 L 0.171875 -17.109375 L 12.1875 -17.109375 L 12.1875 -13.6875 L 8.125 -13.6875 L 8.125 0 L 4.234375 0 L 4.234375 -13.6875 Z M 0.171875 -13.6875 "/></g></g></g><g fill="#ffffff" fill-opacity="1"><g transform="translate(151.853248, 297.87672)"><g><path d="M 1.25 -17.109375 L 7.359375 -17.109375 C 9.003906 -17.109375 10.34375 -16.664062 11.375 -15.78125 C 12.414062 -14.90625 12.9375 -13.65625 12.9375 -12.03125 C 12.9375 -10.769531 12.617188 -9.710938 11.984375 -8.859375 C 11.359375 -8.015625 10.507812 -7.421875 9.4375 -7.078125 L 15.328125 0 L 10.359375 0 L 5.140625 -6.765625 L 5.140625 0 L 1.25 0 Z M 5.140625 -9.515625 L 5.59375 -9.515625 C 5.957031 -9.515625 6.265625 -9.519531 6.515625 -9.53125 C 6.765625 -9.550781 7.046875 -9.601562 7.359375 -9.6875 C 7.679688 -9.769531 7.9375 -9.882812 8.125 -10.03125 C 8.320312 -10.1875 8.488281 -10.410156 8.625 -10.703125 C 8.757812 -10.992188 8.828125 -11.34375 8.828125 -11.75 C 8.828125 -12.164062 8.757812 -12.519531 8.625 -12.8125 C 8.488281 -13.101562 8.320312 -13.320312 8.125 -13.46875 C 7.9375 -13.625 7.679688 -13.742188 7.359375 -13.828125 C 7.046875 -13.910156 6.765625 -13.957031 6.515625 -13.96875 C 6.265625 -13.988281 5.957031 -14 5.59375 -14 L 5.140625 -14 Z M 5.140625 -9.515625 "/></g></g></g><g fill="#ffffff" fill-opacity="1"><g transform="translate(177.281023, 297.87672)"><g><path d="M 0.484375 -8.5625 C 0.484375 -11.039062 1.320312 -13.132812 3 -14.84375 C 4.6875 -16.5625 6.722656 -17.421875 9.109375 -17.421875 C 11.492188 -17.421875 13.519531 -16.566406 15.1875 -14.859375 C 16.863281 -13.148438 17.703125 -11.050781 17.703125 -8.5625 C 17.703125 -6.0625 16.878906 -3.957031 15.234375 -2.25 C 13.585938 -0.539062 11.546875 0.3125 9.109375 0.3125 C 6.597656 0.3125 4.53125 -0.53125 2.90625 -2.21875 C 1.289062 -3.914062 0.484375 -6.03125 0.484375 -8.5625 Z M 4.6875 -8.5625 C 4.6875 -7.664062 4.820312 -6.847656 5.09375 -6.109375 C 5.375 -5.367188 5.859375 -4.742188 6.546875 -4.234375 C 7.242188 -3.722656 8.097656 -3.46875 9.109375 -3.46875 C 10.554688 -3.46875 11.648438 -3.960938 12.390625 -4.953125 C 13.128906 -5.953125 13.5 -7.15625 13.5 -8.5625 C 13.5 -9.957031 13.117188 -11.15625 12.359375 -12.15625 C 11.609375 -13.15625 10.523438 -13.65625 9.109375 -13.65625 C 7.691406 -13.65625 6.597656 -13.15625 5.828125 -12.15625 C 5.066406 -11.15625 4.6875 -9.957031 4.6875 -8.5625 Z M 4.6875 -8.5625 "/></g></g></g><g fill="#ffffff" fill-opacity="1"><g transform="translate(206.044532, 297.87672)"><g><path d="M 15.390625 0 L 14.578125 -10.140625 L 14.46875 -10.140625 L 10.96875 -0.109375 L 8.640625 -0.109375 L 5.140625 -10.140625 L 5.03125 -10.140625 L 4.234375 0 L 0.328125 0 L 1.859375 -17.109375 L 6.015625 -17.109375 L 9.8125 -7.234375 L 13.609375 -17.109375 L 17.75 -17.109375 L 19.28125 0 Z M 15.390625 0 "/></g></g></g><g fill="#ffffff" fill-opacity="1"><g transform="translate(236.237638, 297.87672)"><g><path d="M 9.9375 -17.109375 L 16.84375 0 L 12.640625 0 L 11.390625 -3.421875 L 4.875 -3.421875 L 3.609375 0 L -0.578125 0 L 6.328125 -17.109375 Z M 10.0625 -6.84375 L 8.15625 -11.8125 L 8.109375 -11.8125 L 6.203125 -6.84375 Z M 10.0625 -6.84375 "/></g></g></g><g fill="#ffffff" fill-opacity="1"><g transform="translate(263.074283, 297.87672)"><g><path d="M 1.25 -17.109375 L 7.359375 -17.109375 C 9.003906 -17.109375 10.34375 -16.664062 11.375 -15.78125 C 12.414062 -14.90625 12.9375 -13.65625 12.9375 -12.03125 C 12.9375 -10.769531 12.617188 -9.710938 11.984375 -8.859375 C 11.359375 -8.015625 10.507812 -7.421875 9.4375 -7.078125 L 15.328125 0 L 10.359375 0 L 5.140625 -6.765625 L 5.140625 0 L 1.25 0 Z M 5.140625 -9.515625 L 5.59375 -9.515625 C 5.957031 -9.515625 6.265625 -9.519531 6.515625 -9.53125 C 6.765625 -9.550781 7.046875 -9.601562 7.359375 -9.6875 C 7.679688 -9.769531 7.9375 -9.882812 8.125 -10.03125 C 8.320312 -10.1875 8.488281 -10.410156 8.625 -10.703125 C 8.757812 -10.992188 8.828125 -11.34375 8.828125 -11.75 C 8.828125 -12.164062 8.757812 -12.519531 8.625 -12.8125 C 8.488281 -13.101562 8.320312 -13.320312 8.125 -13.46875 C 7.9375 -13.625 7.679688 -13.742188 7.359375 -13.828125 C 7.046875 -13.910156 6.765625 -13.957031 6.515625 -13.96875 C 6.265625 -13.988281 5.957031 -14 5.59375 -14 L 5.140625 -14 Z M 5.140625 -9.515625 "/></g></g></g><g fill="#ffffff" fill-opacity="1"><g transform="translate(288.502047, 297.87672)"><g><path d="M 16.8125 0 L 11.453125 0 L 5.140625 -7.25 L 5.140625 0 L 1.25 0 L 1.25 -17.109375 L 5.140625 -17.109375 L 5.140625 -10.125 L 11.015625 -17.109375 L 15.734375 -17.109375 L 8.859375 -9 Z M 16.8125 0 "/></g></g></g><g fill="#ffffff" fill-opacity="1"><g transform="translate(315.400857, 297.87672)"><g><path d="M 11.03125 -17.109375 L 11.03125 -13.6875 L 5.140625 -13.6875 L 5.140625 -10.28125 L 10.78125 -10.28125 L 10.78125 -6.859375 L 5.140625 -6.859375 L 5.140625 -3.421875 L 11.03125 -3.421875 L 11.03125 0 L 1.25 0 L 1.25 -17.109375 Z M 11.03125 -17.109375 "/></g></g></g><g fill="#ffffff" fill-opacity="1"><g transform="translate(338.010879, 297.87672)"><g><path d="M 0.171875 -13.6875 L 0.171875 -17.109375 L 12.1875 -17.109375 L 12.1875 -13.6875 L 8.125 -13.6875 L 8.125 0 L 4.234375 0 L 4.234375 -13.6875 Z M 0.171875 -13.6875 "/></g></g></g></svg>